<?xml version="1.0" encoding="UTF-8"?>
<svg xmlns="http://www.w3.org/2000/svg" viewBox="0 0 16 16">
  <g fill="#2e3436">
    <!-- Open palm: four fingers as vertical rounded rects, then a wider
         palm/wrist below them, with a thumb sweeping out the left side. -->
    <path d="M5.5 2a1 1 0 0 1 1 1v5h.6V1.6a1 1 0 0 1 2 0V8h.6V2.4a1 1 0 0 1 2 0V8h.6V4a1 1 0 0 1 2 0v6.2c0 2.6-2 4.8-4.6 4.8H8.5c-1.5 0-2.9-.8-3.6-2.1L1.4 7.5a1 1 0 1 1 1.7-1L5 9.4c.2.3.4.4.7.4h.1L4.5 3a1 1 0 0 1 1-1z"/>
  </g>
</svg>
